<svg width="44" height="44" viewBox="0 0 44 44" fill="none" xmlns="http://www.w3.org/2000/svg">
<path d="M22 0C17.6488 0 13.3953 1.29028 9.77746 3.70767C6.15958 6.12506 3.33979 9.56099 1.67466 13.581C0.00953221 17.6009 -0.426141 22.0244 0.422734 26.292C1.27161 30.5596 3.3669 34.4796 6.44366 37.5563C9.52041 40.6331 13.4404 42.7284 17.708 43.5773C21.9756 44.4261 26.3991 43.9905 30.419 42.3253C34.439 40.6602 37.8749 37.8404 40.2923 34.2225C42.7097 30.6047 44 26.3512 44 22C43.9934 16.1673 41.6734 10.5753 37.5491 6.45094C33.4247 2.32657 27.8327 0.00660164 22 0ZM22.0001 35.5385C21.4981 35.5385 21.0073 35.3897 20.5898 35.1107C20.1724 34.8318 19.847 34.4353 19.6549 33.9715C19.4628 33.5077 19.4125 32.9973 19.5104 32.5048C19.6084 32.0124 19.8501 31.5601 20.2052 31.2051C20.5602 30.8501 21.0125 30.6083 21.5049 30.5104C21.9973 30.4124 22.5077 30.4627 22.9715 30.6548C23.4354 30.847 23.8318 31.1723 24.1108 31.5898C24.3897 32.0072 24.5386 32.498 24.5386 33.0001C24.5386 33.6733 24.2711 34.319 23.7951 34.795C23.319 35.2711 22.6734 35.5385 22.0001 35.5385ZM23.6923 25.1962V25.3856C23.6923 25.8345 23.514 26.2649 23.1967 26.5823C22.8793 26.8997 22.4488 27.078 22 27.078C21.5512 27.078 21.1207 26.8997 20.8034 26.5823C20.486 26.2649 20.3077 25.8345 20.3077 25.3856V23.6933C20.3077 23.2445 20.486 22.8141 20.8034 22.4967C21.1208 22.1794 21.5512 22.0011 22 22.001C22.8368 22.001 23.6548 21.7529 24.3505 21.288C25.0463 20.8231 25.5885 20.1624 25.9087 19.3893C26.229 18.6162 26.3127 17.7656 26.1495 16.9449C25.9862 16.1242 25.5833 15.3703 24.9916 14.7787C24.3999 14.187 23.6461 13.784 22.8254 13.6208C22.0047 13.4575 21.154 13.5413 20.381 13.8615C19.6079 14.1818 18.9471 14.724 18.4823 15.4198C18.0174 16.1155 17.7692 16.9335 17.7692 17.7703C17.7692 18.2191 17.591 18.6495 17.2736 18.9669C16.9562 19.2843 16.5258 19.4626 16.0769 19.4626C15.6281 19.4626 15.1977 19.2843 14.8803 18.9669C14.5629 18.6495 14.3846 18.2191 14.3846 17.7703C14.3848 16.3367 14.7896 14.9323 15.5525 13.7186C16.3154 12.5049 17.4053 11.5312 18.697 10.9094C19.9887 10.2877 21.4296 10.0431 22.8541 10.2039C24.2786 10.3647 25.6288 10.9243 26.7494 11.8183C27.87 12.7124 28.7155 13.9046 29.1887 15.2578C29.6618 16.611 29.7434 18.0703 29.424 19.4678C29.1047 20.8653 28.3973 22.1443 27.3834 23.1577C26.3694 24.171 25.09 24.8776 23.6923 25.1962Z" fill="#C4E7FF"/>
</svg>
