<svg width="52" height="47" viewBox="0 0 52 47" fill="none" xmlns="http://www.w3.org/2000/svg">
<path d="M25.9459 0C11.5676 0 0 10.4444 0 23.4467C0 27.6032 1.18919 31.4399 3.24324 34.9569C3.45946 35.3832 3.56757 35.9161 3.45946 36.3424L1.08108 43.6961C0.648649 45.0816 1.94595 46.254 3.35135 45.8277L10.9189 43.2698C11.4595 43.0567 12 43.1633 12.4324 43.483C16.4324 45.7211 21.0811 47 26.0541 47C40.4324 47 52 36.5556 52 23.5533C51.7838 10.4444 40.2162 0 25.9459 0ZM38.3784 18.2245L25.1892 31.0136C24.6486 31.5465 24.1081 31.7596 23.3514 31.7596C22.7027 31.7596 22.0541 31.5465 21.5135 31.0136L15.1351 24.8322C14.5946 24.2993 14.5946 23.5533 15.1351 23.127L16.973 21.4218C17.5135 20.8889 18.2703 20.8889 18.8108 21.4218L23.3514 25.898L34.7027 14.8141C35.2432 14.2812 36 14.2812 36.5405 14.8141L38.3784 16.5193C38.8108 16.9456 38.8108 17.7982 38.3784 18.2245Z" fill="#0984D7"/>
</svg>
