<svg width="80" height="63" viewBox="0 0 80 63" fill="none" xmlns="http://www.w3.org/2000/svg">
<path d="M37.1513 5.46792C33.5114 6.49811 30.1088 7.92453 26.9436 9.74717C23.8576 11.5698 21.1276 13.7094 18.7537 16.166C16.459 18.5434 14.639 21.1189 13.2938 23.8925C11.9486 26.666 11.276 29.5189 11.276 32.4509C11.276 34.1943 11.632 35.7396 12.3442 37.0868C13.0564 38.3547 13.8872 38.9887 14.8368 38.9887C15.8655 38.9887 16.6963 38.7906 17.3294 38.3943C18.0415 37.9981 18.7537 37.5623 19.4659 37.0868C20.178 36.6113 20.9693 36.1755 21.8398 35.7792C22.7893 35.383 24.0158 35.1849 25.5193 35.1849C27.1019 35.1849 28.5658 35.5415 29.911 36.2547C31.3353 36.8887 32.5618 37.8 33.5905 38.9887C34.6983 40.1774 35.5687 41.6038 36.2018 43.2679C36.8348 44.9321 37.1513 46.7151 37.1513 48.617C37.1513 50.6774 36.7161 52.5792 35.8457 54.3226C34.9753 56.066 33.7883 57.5717 32.2849 58.8396C30.8605 60.1075 29.1592 61.1377 27.181 61.9302C25.2819 62.6434 23.2245 63 21.0089 63C18.0811 63 15.3511 62.366 12.819 61.0981C10.2868 59.7509 8.07122 57.9679 6.17211 55.7491C4.273 53.4509 2.76954 50.8358 1.66172 47.9038C0.553907 44.8925 0 41.683 0 38.2755C0 32.8868 0.98912 27.934 2.96736 23.417C5.02473 18.9 7.71513 14.9774 11.0386 11.6491C14.4411 8.24151 18.3976 5.54717 22.908 3.56604C27.4184 1.50566 32.1662 0.316981 37.1513 0V5.46792ZM80 5.46792C76.4392 6.49811 73.0762 7.92453 69.911 9.74717C66.7458 11.5698 64.0158 13.7094 61.7211 16.166C59.4263 18.5434 57.6063 21.1189 56.2611 23.8925C54.9159 26.666 54.2433 29.5189 54.2433 32.4509C54.2433 34.1943 54.5598 35.7396 55.1929 37.0868C55.905 38.3547 56.7755 38.9887 57.8042 38.9887C58.8328 38.9887 59.6637 38.7906 60.2967 38.3943C61.0089 37.9981 61.6815 37.5623 62.3145 37.0868C63.0267 36.6113 63.818 36.1755 64.6884 35.7792C65.638 35.383 66.8645 35.1849 68.368 35.1849C69.9505 35.1849 71.4144 35.5415 72.7596 36.2547C74.184 36.8887 75.4105 37.8 76.4392 38.9887C77.547 40.1774 78.4174 41.6038 79.0504 43.2679C79.6835 44.9321 80 46.7151 80 48.617C80 50.6774 79.5648 52.5792 78.6944 54.3226C77.9031 56.066 76.7557 57.5717 75.2522 58.8396C73.8279 60.1075 72.1266 61.1377 70.1484 61.9302C68.1701 62.6434 66.0732 63 63.8576 63C60.9298 63 58.1998 62.366 55.6677 61.0981C53.1355 59.7509 50.9199 57.9679 49.0208 55.7491C47.1217 53.4509 45.6182 50.8358 44.5104 47.9038C43.4026 44.8925 42.8487 41.683 42.8487 38.2755C42.8487 32.8868 43.8378 27.934 45.816 23.417C47.8734 18.9 50.6034 14.9774 54.0059 11.6491C57.4085 8.24151 61.3254 5.54717 65.7567 3.56604C70.2671 1.50566 75.0148 0.316981 80 0V5.46792Z" fill="#C3E7FF"/>
</svg>
